<svg id="visual" viewBox="0 0 900 600" width="900" height="600" xmlns="http://www.w3.org/2000/svg" xmlns:xlink="http://www.w3.org/1999/xlink" version="1.1"><rect x="0" y="0" width="900" height="600" fill="#002233"></rect><path d="M0 259L18.8 274.5C37.7 290 75.3 321 112.8 346.2C150.3 371.3 187.7 390.7 225.2 388.3C262.7 386 300.3 362 337.8 348.3C375.3 334.7 412.7 331.3 450.2 313.3C487.7 295.3 525.3 262.7 562.8 299.8C600.3 337 637.7 444 675.2 462.2C712.7 480.3 750.3 409.7 787.8 381C825.3 352.3 862.7 365.7 881.3 372.3L900 379L900 601L881.3 601C862.7 601 825.3 601 787.8 601C750.3 601 712.7 601 675.2 601C637.7 601 600.3 601 562.8 601C525.3 601 487.7 601 450.2 601C412.7 601 375.3 601 337.8 601C300.3 601 262.7 601 225.2 601C187.7 601 150.3 601 112.8 601C75.3 601 37.7 601 18.8 601L0 601Z" fill="#0066FF" stroke-linecap="round" stroke-linejoin="miter"></path></svg>